<svg fill="none" height="402" viewBox="0 0 761 402" width="761" xmlns="http://www.w3.org/2000/svg"><path d="m344.721 1.22452c-51.89 2.16211-105.032 13.59848-149.754 32.20398-5.746 2.3897-14.395 5.6328-19.231 7.2829-13.883 4.6656-22.816 8.0225-33.57 12.6312-38.861 16.6141-75.844 40.6248-100.4807 65.2614-21.5641 21.621-35.1626 44.551-40.11268 67.822-1.5362304 7.226-2.048308 21.28-1.081051 29.074 4.153521 33.456 26.684931 65.262 67.708031 95.759 31.7488 23.555 72.2024 43.868 111.2344 55.759 4.381 1.309 11.323 3.642 15.362 5.121 44.665 16.444 94.962 25.718 154.193 28.506 26.4 1.252 70.951.171 100.139-2.333 53.541-4.666 102.416-14.111 144.804-27.994 67.139-21.962 114.08-50.98 141.618-87.508 12.802-17.012 20.881-35.39 23.726-54.052 1.195-8.023 1.195-23.897-.057-32.148-4.893-32.374-24.75-65.489-54.109-90.239-22.418-18.8899-52.346-35.6177-90.126-50.2973-4.21-1.65-12.005-4.9501-17.353-7.3967-33.229-15.0209-72.829-27.5952-111.804-35.504-49.444-10.01394-94.791-13.882991-141.106-11.94848zm52.63 10.81058c20.768 1.1948 38.975 3.3569 61.45 7.1121 14.964 2.5035 28.676 5.1777 27.14 5.2915-.455.0569-5.974-.4552-12.233-1.0811-17.525-1.7069-29.53-2.2758-46.941-2.2758-10.07 0-18.889-.2845-24.067-.8535-35.447-3.6414-82.274-4.0966-117.095-1.0811-5.405.4552-9.957.7397-10.071.6259-.341-.2845 15.021-3.0156 24.807-4.3811 15.419-2.1052 33.854-3.6415 52.061-4.2104 8.535-.2845 34.594.2276 44.949.8535zm-123.353 8.2501c-.171.1707-.683.2276-1.081.0569-.455-.1707-.285-.3414.341-.3414.626-.0569.967.1138.74.2845zm99.058 1.1948c4.495.1707 7.909.5121 7.681.7397-.227.1707-5.405.7966-11.436 1.3087-69.87 6.1449-142.813 26.9125-197.662 56.1578-34.025 18.2071-66.911 39.7708-92.6289 60.8238-7.795 6.372-10.9812 9.217-18.0934 16.158-3.1863 3.13-5.9742 5.52-6.1449 5.349-.5121-.512 5.3483-12.29 9.1605-18.321 11.6639-18.606 30.1556-37.496 54.9057-56.1011 30.554-22.9866 63.384-40.1127 102.131-53.3698 8.023-2.788 12.575-3.926 21.052-5.4622 23.784-4.2104 51.549-6.9415 80.226-7.9087 7.624-.2845 40.681.1138 50.809.6258zm115.445 3.357c-.17.1707-.683.2276-1.081.0569-.455-.1707-.284-.3414.342-.3414.625-.0569.967.1138.739.2845zm-32.83 8.1363c11.152 3.7552 22.418 10.4123 26.059 15.3623 1.309 1.8208 2.39 2.2759 2.39 1.0242 0-.8535-7.966-8.7622-10.81-10.6967-1.081-.7397-4.04-2.4466-6.544-3.7553-5.462-2.9017-5.519-2.9017 9.275-1.3086 39.43 4.3242 85.118 14.4519 119.598 26.4573 12.404 4.3811 37.609 18.0934 57.467 31.2936 33.797 22.5319 59.173 48.7609 71.52 73.9669 7.34 15.021 10.526 28.221 10.526 44.095.057 16.159-3.13 29.53-10.128 42.674-19.345 36.414-64.92 66.968-132.799 89.215-76.982 25.262-173.537 40.511-256.038 40.511-52.687 0-101.562-5.747-129.727-15.306-63.042-21.279-115.5014-56.613-140.3087-94.506-13.7692-20.996-19.8573-41.137-19.8004-65.432 0-11.494.7397-17.696 3.1294-27.88l1.1948-5.121 7.1691-6.771c10.3554-9.786 16.5572-14.964 29.416-24.636 33.1708-25.035 82.8998-54.1668 117.4938-68.9033 52.857-22.4745 113.339-36.6419 174.959-41.0799 18.037-1.3087 17.525-1.3087 44.949-1.138l25.604.1138zm-311.115 25.6039c-14.793 8.9329-29.757 19.5727-43.64 31.1229-9.5023 7.8519-26.7991 25.0919-32.1475 32.0899-12.9157 16.785-21.8486 34.196-26.2297 51.322-.9104 3.584-1.7069 5.234-3.869 8.022-10.0709 12.859-17.4676 28.335-22.5314 47.055-1.138 4.21-2.1621 7.965-2.2759 8.364-.1138.398 0 .853.2845 1.024.2276.17 1.5362-2.959 2.9017-6.942 3.4708-10.583 8.364-22.019 12.4037-29.018 3.6983-6.429 9.6726-15.248 10.0708-14.85.1138.171-.0569 2.39-.3982 5.064-.8535 6.259-.7966 23.328 0 29.814 2.731 20.882 9.388 38.008 22.5314 57.751 6.1449 9.275 12.5174 16.728 22.2469 26.173 11.8915 11.493 26.7417 23.044 42.1607 32.716 3.357 2.162 6.43 4.097 6.714 4.381 2.162 1.935-18.662-8.591-29.871-15.021-24.9211-14.395-44.0386-28.562-60.6527-45.119-9.957-9.9-14.5657-15.42-20.9952-25.035-8.0225-11.949-13.59845-25.32-15.98814-38.122-1.59313-8.42-1.47934-23.498.28448-31.578 4.32421-20.426 14.22436-38.349 32.31776-58.718 18.0365-20.312 49.6146-43.5833 81.5338-60.1405 8.649-4.4949 30.953-14.7933 32.09-14.8502.228 0-2.844 1.9914-6.941 4.4949zm571.478 72.3738c10.469 11.778 16.671 20.824 22.702 33.057 17.183 34.992 15.932 70.269-3.641 101.392-5.576 8.876-12.176 17.012-21.394 26.229-28.562 28.677-68.902 51.037-125.459 69.586-44.38 14.566-94.961 23.954-152.485 28.278-36.016 2.674-76.413 2.731-110.096.171l-9.673-.74 30.44-.341c16.728-.228 34.651-.626 39.828-1.025 61.165-4.267 112.601-12.289 165.857-25.774 78.234-19.8 128.815-43.982 160.45-76.755 21.337-22.133 32.091-47.452 32.148-75.73 0-22.589-6.657-43.527-20.427-64.238-5.974-8.989-9.16-12.972-18.15-22.986l-6.657-7.397 5.576 5.064c3.016 2.788 7.966 7.852 10.981 11.209zm-403.915 257.461c-.171.171-.683.227-1.081.057-.455-.171-.284-.342.341-.342.626-.056.968.114.74.285z" fill="#5D3891"/></svg>