<svg fill="none" height="94" viewBox="0 0 1096 94" width="1096" xmlns="http://www.w3.org/2000/svg"><path d="m1089.11 74.538c-272.46-41.3006-548.527-53.6477-823.588-36.8349-2.246.1383-4.49.2983-6.738.4421 30.706-3.5094 61.512-6.2241 92.302-8.4345 120.499-8.6514 241.235-11.9681 362.207-9.9504 68.269 1.074 136.482 3.8203 204.639 8.2392 12.204.781 12.153-18.20594 0-18.9843-121.935-7.82151-244.046-10.37987-366.331-7.67507-118.332 2.71204-237.719 8.03034-354.855 25.88097-44.406 6.6038-88.355 15.9887-131.5852 28.0994-10.7939 1.2295-21.5813 2.4951-32.3643 3.7969-2.2879.2767-4.4143 1.321-6.0319 2.9623-1.6177 1.6413-2.6315 3.7826-2.875 6.0742-5.4891 1.8577-10.9679 3.7507-16.42182 5.7278-9.42162 3.4117-8.86517 19.345 2.52267 18.6453 279.64055-17.2052 560.13655-34.4212 840.31455-19.9064 78.977 4.0925 157.805 10.7858 236.285 20.5546 10.52 1.3099 13.1-17.0452 2.52-18.6372zm-922.963-10.36c117.431-10.2461 235.154-15.1684 353.169-14.767-90.723 1.7709-181.422 5.538-271.949 10.2759-27.077 1.403-54.15 2.8974-81.22 4.483z" fill="#5D3891"/></svg>