<?xml version="1.0" standalone="no"?>
<!DOCTYPE svg PUBLIC "-//W3C//DTD SVG 20010904//EN"
 "http://www.w3.org/TR/2001/REC-SVG-20010904/DTD/svg10.dtd">
<svg version="1.0" xmlns="http://www.w3.org/2000/svg"
 width="500.000000pt" height="500.000000pt" viewBox="0 0 500.000000 500.000000"
 preserveAspectRatio="xMidYMid meet">
<metadata>
Created by potrace 1.14, written by Peter Selinger 2001-2017
</metadata>
<g transform="translate(0.000000,500.000000) scale(0.100000,-0.100000)"
fill="#000000" stroke="none">
<path d="M1890 3896 c0 -116 4 -177 11 -182 6 -3 283 -7 615 -8 477 -1 604 2
604 12 0 6 3 12 8 12 8 0 6 254 -2 276 -3 7 -1 16 4 19 7 4 6 13 0 26 -10 18
-27 19 -625 19 l-615 0 0 -174z"/>
<path d="M1890 2566 l0 -683 188 1 187 1 0 492 c0 486 0 493 20 494 11 0 207
1 435 2 l415 2 1 175 c0 96 -4 181 -9 188 -7 9 -144 12 -623 12 l-614 0 0
-684z"/>
<path d="M1832 1556 c-18 -17 -34 -41 -35 -53 -1 -15 -8 -23 -19 -23 -27 0
-26 -86 1 -93 17 -4 19 -14 19 -103 l-1 -99 44 0 44 0 3 103 c3 100 3 102 27
102 34 0 42 18 36 80 -1 6 -14 10 -31 10 -22 0 -28 4 -24 15 5 11 11 12 25 4
21 -11 43 -3 34 12 -4 5 -2 9 3 9 6 0 13 7 16 17 10 24 -23 48 -69 49 -31 0
-47 -7 -73 -30z"/>
<path d="M2069 1453 c-19 -15 -36 -31 -37 -36 -2 -4 -9 -13 -15 -20 -13 -13
-17 -127 -4 -127 4 0 7 -5 7 -11 0 -6 15 -26 34 -45 30 -30 41 -34 90 -37 31
-1 57 2 59 7 2 5 11 5 21 -1 29 -16 115 8 90 25 -13 9 -13 235 0 244 6 4 7 10
4 13 -12 13 -79 17 -92 6 -7 -6 -15 -8 -18 -5 -3 3 -28 8 -55 11 -43 4 -53 2
-84 -24z m122 -75 c23 -10 26 -17 25 -52 -2 -27 -8 -43 -22 -53 -25 -16 -84
-7 -84 13 0 8 -4 14 -9 14 -10 0 -5 34 10 65 12 24 43 29 80 13z"/>
<path d="M2359 1472 c-3 -24 -4 -279 -2 -288 2 -6 20 -8 46 -5 l42 6 6 70 c3
39 9 77 13 85 3 8 28 25 55 38 46 21 48 24 47 59 -1 48 -27 54 -79 18 -21 -14
-39 -25 -41 -25 -1 0 -2 10 -2 23 1 19 -5 22 -41 24 -24 2 -43 -1 -44 -5z"/>
<path d="M2690 1472 c-8 -2 -31 -22 -51 -44 -34 -37 -36 -43 -34 -101 2 -76 7
-89 53 -123 35 -27 83 -34 135 -18 16 5 17 3 8 -14 -8 -15 -20 -19 -58 -18
-26 1 -54 5 -60 9 -10 6 -13 -2 -13 -30 0 -47 10 -63 35 -59 11 2 23 -1 26 -7
4 -6 15 -7 25 -2 11 5 28 9 39 11 32 3 85 27 85 39 0 6 5 16 11 22 12 12 17
312 6 331 -4 5 -24 9 -47 10 -30 1 -40 -2 -40 -13 0 -14 -3 -14 -22 -1 -23 14
-70 18 -98 8z m102 -99 c33 -30 20 -94 -23 -110 -16 -6 -29 -8 -29 -5 0 4 -10
12 -22 17 -27 12 -33 65 -11 92 20 24 61 28 85 6z"/>
<path d="M3045 1469 c-4 -5 -11 -7 -16 -4 -5 4 -12 -1 -15 -9 -3 -9 -12 -16
-20 -16 -8 0 -14 -6 -14 -14 0 -8 -7 -17 -16 -20 -8 -3 -12 -10 -9 -16 3 -5 1
-10 -4 -10 -14 0 -14 -97 -1 -105 6 -4 8 -11 5 -16 -7 -11 46 -59 81 -75 32
-13 133 -2 145 17 5 8 9 11 9 7 0 -16 36 29 49 60 22 53 8 119 -36 164 -20 20
-40 35 -45 32 -4 -3 -8 -1 -8 4 0 13 -98 14 -105 1z m87 -93 c34 -25 27 -86
-11 -107 -27 -16 -30 -16 -55 6 -14 12 -23 25 -19 29 3 3 1 6 -5 6 -6 0 -10 9
-9 20 1 11 6 20 11 20 5 0 7 3 3 6 -10 11 17 31 43 32 14 0 33 -5 42 -12z"/>
</g>
</svg>
